<svg t="1702542126132" class="icon" viewBox="0 0 1024 1024" version="1.1" xmlns="http://www.w3.org/2000/svg" p-id="1051" width="200" height="200"><path d="M914.688 211.5584H272.3328a25.6 25.6 0 0 1 0-51.2h642.3552a25.6 25.6 0 0 1 0 51.2z" fill="#585266" p-id="1052"></path><path d="M143.0528 211.5584h-24.2176a25.6 25.6 0 0 1 0-51.2h24.2176a25.6 25.6 0 0 1 0 51.2z" fill="#FF64C8" p-id="1053"></path><path d="M914.688 534.7328H272.3328a25.6 25.6 0 0 1 0-51.2h642.3552a25.6 25.6 0 1 1 0 51.2z" fill="#585266" p-id="1054"></path><path d="M143.0528 534.7328h-24.2176a25.6 25.6 0 0 1 0-51.2h24.2176a25.6 25.6 0 0 1 0 51.2z" fill="#FF64C8" p-id="1055"></path><path d="M914.688 857.9584H272.3328a25.6 25.6 0 0 1 0-51.2h642.3552a25.6 25.6 0 1 1 0 51.2z" fill="#585266" p-id="1056"></path><path d="M143.0528 857.9584h-24.2176a25.6 25.6 0 0 1 0-51.2h24.2176a25.6 25.6 0 0 1 0 51.2z" fill="#FF64C8" p-id="1057"></path></svg>